<svg height="512pt" viewBox="0 0 512 512" width="512pt" xmlns="http://www.w3.org/2000/svg"><path d="m256 441.378906c141.242188 0 256 17.65625 256 52.964844 0 8.828125-8.828125 17.65625-26.484375 17.65625-52.964844 0-123.585937-26.484375-229.515625-26.484375s-176.550781 26.484375-229.515625 26.484375c-17.65625 0-26.484375-8.828125-26.484375-17.65625 0-35.308594 114.757812-52.964844 256-52.964844zm0 0" fill="#445c71"/><path d="m477.113281 44.03125c-70.164062-28.832031-145.253906-43.785156-221.113281-44.03125-75.859375.246094-150.949219 15.199219-221.113281 44.03125-12.34375 4.542969-19.433594 17.507812-16.597657 30.351562 9.710938 43.757813 74.675782 198.285157 78.621094 376.601563 52.742188-6.894531 105.902344-10.105469 159.089844-9.605469 53.1875-.5 106.347656 2.710938 159.089844 9.605469 3.945312-178.316406 68.855468-332.800781 78.621094-376.601563 2.835937-12.84375-4.253907-25.808593-16.597657-30.351562zm0 0" fill="#919d9e"/><path d="m256 0v441.378906c-53.183594-.523437-106.339844 2.691406-159.074219 9.621094-3.972656-178.316406-68.855469-332.886719-78.652343-376.582031-2.832032-12.847657 4.253906-25.816407 16.59375-30.367188 70.175781-28.832031 145.269531-43.789062 221.132812-44.050781zm0 0" fill="#445c71"/><path d="m94.277344 401.390625c1.351562 16.277344 2.261718 32.828125 2.648437 49.59375 52.738281-6.894531 105.890625-10.105469 159.074219-9.605469 53.1875-.5 106.347656 2.710938 159.089844 9.605469.371094-16.773437 1.28125-33.316406 2.648437-49.59375-53.441406-8.945313-107.554687-13.289063-161.738281-12.976563-54.179688-.3125-108.285156 4.03125-161.722656 12.976563zm0 0" fill="#ed634c"/><path d="m291.308594 229.515625h-105.929688c-9.75 0-17.65625 7.90625-17.65625 17.65625v144.914063c25.964844-2.207032 55.367188-3.671876 88.277344-3.671876 18.804688 0 36.40625.492188 52.964844 1.316407v-142.558594c0-9.75-7.902344-17.65625-17.65625-17.65625zm0 0" fill="#ebeced"/><path d="m344.621094 265.339844-35.65625-7.105469v131.53125c9.949218.484375 19.421875 1.109375 28.503906 1.816406l21.011719-105.445312c.925781-4.59375-.015625-9.371094-2.617188-13.273438-2.601562-3.902343-6.644531-6.609375-11.242187-7.523437zm0 0" fill="#dadcda"/><path d="m382.234375 320.875-27.304687-16.84375-17.441407 87.515625c7.183594.589844 14.105469 1.203125 20.761719 1.835937l29.722656-48.222656c5.113282-8.292968 2.546875-19.160156-5.738281-24.285156zm0 0" fill="#ebeced"/><g fill="#ed634c"><path d="m273.65625 344.277344c-3.164062.007812-6.089844-1.675782-7.671875-4.414063l-27.640625-48.410156-27.648438 48.410156c-2.476562 4.105469-7.773437 5.480469-11.9375 3.101563-4.160156-2.375-5.664062-7.640625-3.386718-11.859375l35.3125-61.792969c1.699218-2.574219 4.578125-4.125 7.660156-4.125 3.085938 0 5.964844 1.550781 7.664062 4.125l35.308594 61.792969c2.417969 4.230469.949219 9.621093-3.28125 12.039062-1.335937.757813-2.847656 1.144531-4.378906 1.132813zm0 0"/><path d="m263.589844 326.621094h-50.492188c-4.875 0-8.828125-3.953125-8.828125-8.828125s3.953125-8.828125 8.828125-8.828125h50.492188c4.878906 0 8.828125 3.953125 8.828125 8.828125s-3.949219 8.828125-8.828125 8.828125zm0 0"/></g></svg>